<?xml version="1.0" encoding="UTF-8"?>
<svg id="Outline" xmlns="http://www.w3.org/2000/svg" version="1.1" viewBox="0 0 64 64">
  <!-- Generator: Adobe Illustrator 29.5.1, SVG Export Plug-In . SVG Version: 2.1.0 Build 141)  -->
  <path d="M56.498,17.133c-.311-.179-.691-.178-1.002.003l-16.14,9.41c-.268.156-.448.429-.488.736-.016.125.007.247.037.367-2.372.097-4.581,1.053-6.249,2.731-.207.205-.438.381-.667.559-.228-.176-.445-.359-.64-.554-1.672-1.682-3.88-2.638-6.251-2.736.029-.118.052-.24.037-.363-.04-.308-.221-.58-.488-.736l-16.143-9.414c-.31-.18-.69-.181-1.002-.003-.311.179-.502.509-.502.867v17.899c0,.229.078.449.221.627l3.414,4.243c.178.221.441.356.726.372.018,0,.036,0,.054,0,.265,0,.52-.104.707-.293l.707-.707,1.555,1.555c.696.696,1.165,1.57,1.354,2.52.01.055.034.105.046.159-.199.121-.39.26-.562.432l-1.414,1.414c-1.17,1.17-1.17,3.073,0,4.243h0c.545.545,1.251.825,1.966.862.037.715.317,1.42.861,1.966h0c.545.545,1.251.826,1.966.863.037.715.317,1.42.862,1.965h0c.566.566,1.319.879,2.121.879s1.555-.312,2.121-.879l1.135-1.135.712.712c.57.568,1.325.882,2.126.882.796,0,1.548-.313,2.117-.883.249-.249.434-.536.577-.838l.132.132c.585.585,1.353.878,2.121.877.769,0,1.537-.292,2.123-.877.249-.249.433-.536.576-.838l.838.838c.585.585,1.353.877,2.121.877s1.536-.292,2.121-.877.879-1.358.877-2.129l5.072-5.081c.975-.963,1.634-2.192,1.907-3.556.191-.958.66-1.832,1.356-2.528l1.558-1.558.708.708c.188.188.442.293.707.293.018,0,.036,0,.054,0,.284-.016.548-.151.726-.372l3.41-4.239c.143-.178.221-.399.221-.627v-4.9c0-.553-.447-1-1-1s-1,.447-1,1v4.548l-2.491,3.097-11.023-11.024,13.515-7.88v3.26c0,.553.447,1,1,1s1-.447,1-1v-5c0-.358-.191-.688-.502-.867ZM9,35.547v-15.806l13.519,7.883-11.023,11.023-2.495-3.101ZM15.222,47.636l1.414-1.414c.39-.39,1.024-.392,1.414,0,.391.39.391,1.024,0,1.414l-1.415,1.415c-.388.388-1.022.39-1.414,0-.39-.391-.39-1.025,0-1.415ZM18.05,50.465l1.415-1.415c.391-.389,1.023-.389,1.414,0,.39.391.39,1.024,0,1.415l-1.414,1.414c-.391.391-1.024.391-1.415,0-.39-.391-.39-1.024,0-1.414ZM23.707,53.293l-1.414,1.414c-.379.379-1.036.379-1.413,0h0c-.39-.39-.39-1.024,0-1.414l1.414-1.414c.195-.194.451-.292.707-.292s.513.098.707.293c.189.188.293.438.293.706s-.104.518-.293.707ZM38.991,53.577c-.391.391-1.023.391-1.414,0l-8.485-8.485c-.391-.391-1.023-.391-1.414,0s-.391,1.023,0,1.414l5.656,5.657c.39.39.39,1.024,0,1.414-.391.39-1.024.392-1.415,0l-5.653-5.654h0l-.003-.003c-.391-.391-1.023-.391-1.414,0s-.391,1.023,0,1.414l3.534,3.535c.389.391.389,1.024-.001,1.414-.387.387-1.037.379-1.416,0l-1.044-1.044c.047-.213.077-.43.077-.653,0-.802-.313-1.556-.879-2.121-.545-.545-1.25-.826-1.966-.863-.037-.716-.317-1.422-.863-1.968-.546-.545-1.251-.824-1.966-.861-.037-.715-.317-1.42-.862-1.966-.484-.484-1.095-.756-1.726-.84-.01-.046-.03-.086-.039-.133-.269-1.348-.927-2.575-1.903-3.552l-1.555-1.555,8.958-8.958.469-.072c.304-.046.641-.068,1.03-.068,1.985,0,3.843.769,5.232,2.167.06.06.13.112.192.171-.535.198-1.085.355-1.656.418l-3.57.4c-.269.03-.514.168-.679.382-.166.213-.238.484-.2.752.217,1.534,1.086,2.896,2.385,3.738.876.568,1.889.861,2.911.861.495,0,.992-.068,1.479-.208l.063-.018,9.546,9.623c.391.391.391,1.025,0,1.416-.376.376-1.034.375-1.41.004l-7.073-7.073h0s-.002,0-.002,0c-.391-.391-1.023-.391-1.414,0s-.391,1.023,0,1.414l8.488,8.486c.39.39.39,1.024,0,1.414ZM48.203,40.283c-.977.977-1.635,2.204-1.903,3.551-.194.97-.662,1.843-1.357,2.53l-2.249,2.253c-.002-.765-.293-1.53-.873-2.111l-8.765-8.835.736-.209c.531-.15.84-.702.689-1.234s-.703-.842-1.234-.689l-3.004.851c-.933.271-1.936.12-2.751-.408-.515-.334-.922-.799-1.186-1.339l2.384-.268c1.342-.149,2.633-.609,3.776-1.321.014-.007.026-.017.039-.025.561-.353,1.088-.762,1.563-1.233,1.388-1.396,3.245-2.165,5.23-2.165.39,0,.727.022,1.032.069l.476.072,8.953,8.953-1.558,1.558Z"/>
  <path d="M19.14,21.769c.184.152.411.231.64.231.546,0,1-.456,1-1v-2h2.745c1.239,3.49,4.565,6,8.475,6s7.236-2.51,8.475-6h2.745v2c0,.823,1.007,1.294,1.641.769l6-5c.228-.19.359-.472.359-.769s-.132-.578-.359-.769l-6-5c-.298-.247-.715-.302-1.064-.137-.352.164-.576.518-.576.905v2h-2.745c-1.239-3.49-4.565-6-8.475-6s-7.236,2.51-8.475,6h-2.745v-2c0-.388-.225-.741-.576-.905-.349-.163-.765-.111-1.064.137l-6,5c-.228.19-.359.472-.359.769s.132.578.359.769l6,5ZM44.22,15c.553,0,1-.447,1-1v-.865l3.438,2.865-3.438,2.865v-.865c0-.553-.447-1-1-1h-3.279c.037-.329.059-.662.059-1s-.022-.671-.059-1h3.279ZM32,9c3.859,0,7,3.141,7,7s-3.141,7-7,7-7-3.141-7-7,3.141-7,7-7ZM18.78,13.135v.865c0,.553.447,1,1,1h3.279c-.037.329-.059.662-.059,1s.022.671.059,1h-3.279c-.553,0-1,.447-1,1v.865l-3.438-2.865,3.438-2.865Z"/>
  <path d="M30.293,18.707c.195.195.451.293.707.293s.512-.098.707-.293l4-4c.391-.391.391-1.023,0-1.414s-1.023-.391-1.414,0l-3.293,3.293-1.293-1.293c-.391-.391-1.023-.391-1.414,0s-.391,1.023,0,1.414l2,2Z"/>
  <circle cx="56" cy="27" r="1"/>
</svg>