<?xml version="1.0" encoding="UTF-8"?><svg id="Layer_2" xmlns="http://www.w3.org/2000/svg" viewBox="0 0 142.29 93.28"><g id="Layer_1-2"><g><path d="M24.64,58.77c-.67,0-1.35-.19-1.94-.59l-9.77-6.54-10.1-1.97c-1.9-.37-3.13-2.21-2.76-4.1,.37-1.9,2.2-3.14,4.1-2.76l10.79,2.11c.46,.09,.89,.27,1.28,.53l10.36,6.93c1.61,1.08,2.04,3.25,.96,4.85-.68,1.01-1.78,1.55-2.91,1.55Z"/><path d="M32.03,13.08h-7.66c-.17,0-.34-.01-.5-.04L2.99,10C1.08,9.73-.24,7.95,.04,6.04c.28-1.91,2.07-3.24,3.97-2.96l20.62,3h7.04L57.63,.5c4.77-1.03,9.84-.44,14.26,1.65,1.75,.83,2.49,2.91,1.67,4.66-.82,1.75-2.91,2.5-4.66,1.67-3.04-1.44-6.52-1.84-9.8-1.13l-26.33,5.66c-.24,.05-.49,.08-.73,.08Z"/><path d="M117.64,58.77c-1.13,0-2.24-.54-2.91-1.55-1.08-1.61-.64-3.78,.96-4.85l9.97-6.68c.63-.43,1.34-.72,2.1-.87l10.35-2.02c1.9-.38,3.73,.87,4.1,2.76,.37,1.9-.87,3.73-2.76,4.1l-10.1,1.97-9.77,6.54c-.6,.4-1.27,.59-1.94,.59Z"/><path d="M53.27,38.7c-.23,0-.45,0-.68,0-3.01-.08-5.69-1.81-6.99-4.52s-.98-5.89,.85-8.28c3.49-4.57,7.32-8.95,11.38-13.01l6.32-6.32c5.39-5.39,13.07-7.65,20.51-6.05l25.97,5.58h7.04l20.62-3c1.91-.29,3.69,1.05,3.97,2.96,.28,1.91-1.05,3.69-2.96,3.97l-20.87,3.04c-.17,.02-.34,.04-.5,.04h-7.66c-.25,0-.49-.03-.73-.08l-26.33-5.66c-5.12-1.1-10.39,.46-14.1,4.16l-6.32,6.32c-3.84,3.84-7.46,7.99-10.77,12.31-.3,.39-.22,.77-.1,1.01,.12,.24,.36,.54,.85,.55,5.16,.14,10.05-1.7,13.85-5.15l4.32-3.92c1.15-1.04,2.85-1.2,4.18-.39l13.63,8.35c1.65,1.01,2.17,3.16,1.16,4.81-1.01,1.65-3.16,2.16-4.81,1.16l-11.4-6.98-2.37,2.15c-4.97,4.51-11.36,6.98-18.05,6.98Z"/><path d="M111.55,65.47c-1.73,0-3.47-.47-5.04-1.43l-16.16-9.9c-1.65-1.01-2.17-3.16-1.16-4.81,1.01-1.65,3.17-2.16,4.81-1.16l16.16,9.9c1.04,.64,2.37,.48,3.24-.38,.78-.79,.81-1.7,.75-2.17-.06-.47-.29-1.36-1.24-1.94l-15.18-9.3c-1.65-1.01-2.17-3.16-1.16-4.81,1.01-1.65,3.17-2.17,4.81-1.16l15.18,9.3c2.53,1.55,4.18,4.13,4.53,7.08,.35,2.95-.65,5.84-2.75,7.94-1.86,1.86-4.32,2.83-6.8,2.83Z"/><path d="M105.14,75.93c-1.73,0-3.47-.47-5.04-1.43l-16.16-9.9c-1.65-1.01-2.17-3.16-1.16-4.81,1.01-1.65,3.17-2.17,4.81-1.16l16.16,9.9c1.04,.64,2.37,.48,3.24-.38,.79-.79,.81-1.7,.75-2.17-.06-.47-.29-1.36-1.24-1.94l-10.65-6.52c-1.65-1.01-2.17-3.16-1.16-4.81,1.01-1.65,3.16-2.17,4.81-1.16l10.65,6.52c2.53,1.55,4.18,4.13,4.53,7.08,.35,2.95-.65,5.84-2.75,7.94-1.86,1.86-4.32,2.83-6.8,2.83Z"/><path d="M95.32,84.29c-1.73,0-3.47-.47-5.03-1.42l-12.18-7.46c-1.65-1.01-2.17-3.16-1.16-4.81,1.01-1.65,3.16-2.16,4.81-1.16l12.18,7.46c1.04,.64,2.37,.48,3.24-.38,.79-.79,.81-1.7,.75-2.17s-.29-1.35-1.24-1.93l-10.65-6.52c-1.65-1.01-2.17-3.16-1.16-4.81,1.01-1.65,3.16-2.16,4.81-1.16l10.65,6.52c2.53,1.55,4.18,4.13,4.53,7.08,.35,2.95-.65,5.84-2.75,7.94-1.86,1.86-4.32,2.83-6.8,2.83Z"/><path d="M82.21,90.64c-1.73,0-3.47-.47-5.04-1.42l-8.01-4.54c-1.68-.95-2.27-3.09-1.32-4.77,.95-1.68,3.09-2.27,4.77-1.32l8.11,4.6c1.15,.7,2.47,.54,3.34-.32,.78-.79,.81-1.7,.75-2.17-.06-.47-.29-1.36-1.24-1.94l-7.23-4.42c-1.65-1.01-2.17-3.16-1.16-4.81,1.01-1.65,3.16-2.16,4.81-1.16l7.23,4.43c2.53,1.55,4.18,4.13,4.53,7.08,.35,2.95-.65,5.84-2.75,7.94-1.86,1.86-4.32,2.83-6.8,2.83Z"/><path d="M48.33,85.95c-2.48,0-4.95-.97-6.82-2.84-2.1-2.1-3.1-4.99-2.75-7.94,.35-2.95,2-5.53,4.53-7.08l6.43-3.68c3.85-2.24,8.86-1.49,11.89,1.81h0c1.98,2.15,2.87,5.04,2.44,7.93-.43,2.89-2.12,5.4-4.64,6.87l-6.13,3.54c-1.52,.93-3.23,1.39-4.94,1.39Zm6.19-15.83c-.45,0-.9,.12-1.31,.35l-6.36,3.64c-.86,.53-1.09,1.41-1.15,1.88-.06,.47-.03,1.38,.75,2.17,.86,.86,2.2,1.02,3.24,.38l6.19-3.57c.92-.54,1.17-1.4,1.24-1.86,.07-.46,.07-1.36-.66-2.16h0c-.51-.55-1.22-.84-1.93-.84Z"/><path d="M39.01,77.19c-2.48,0-4.95-.97-6.82-2.84-2.1-2.1-3.1-4.99-2.75-7.94,.35-2.95,2-5.53,4.53-7.08l6.43-3.68c3.85-2.24,8.86-1.49,11.89,1.81h0c1.98,2.15,2.87,5.04,2.44,7.93-.43,2.89-2.12,5.4-4.64,6.87l-6.13,3.54c-1.52,.93-3.23,1.39-4.93,1.39Zm6.19-15.83c-.45,0-.9,.12-1.31,.35l-6.36,3.64c-.86,.53-1.09,1.41-1.15,1.88-.06,.47-.03,1.38,.75,2.17,.86,.86,2.19,1.02,3.24,.38l6.19-3.57c.92-.54,1.17-1.4,1.24-1.86,.07-.46,.07-1.36-.66-2.16h0c-.51-.55-1.22-.84-1.93-.84Z"/><path d="M27.86,69.62c-2.48,0-4.95-.97-6.82-2.84-2.1-2.1-3.1-4.99-2.75-7.94,.35-2.95,2-5.53,4.53-7.08l7.46-4.35c3.87-2.26,8.88-1.5,11.91,1.79h0c1.98,2.15,2.87,5.04,2.44,7.93-.43,2.89-2.12,5.4-4.64,6.87l-7.17,4.21c-1.53,.94-3.25,1.4-4.96,1.4Zm7.25-16.51c-.45,0-.9,.12-1.31,.35l-7.39,4.31c-.88,.54-1.12,1.42-1.17,1.9-.06,.47-.03,1.38,.75,2.17,.86,.86,2.19,1.02,3.24,.38l7.22-4.24c.94-.55,1.19-1.41,1.26-1.87,.07-.46,.07-1.36-.66-2.16h0c-.51-.55-1.22-.84-1.93-.84Z"/><path d="M60.85,93.28c-2.49,0-4.94-.97-6.81-2.83-2.1-2.1-3.1-4.99-2.75-7.94,.34-2.87,1.91-5.39,4.33-6.95l3.9-3.1c.13-.1,.27-.2,.42-.29,3.87-2.25,8.88-1.5,11.91,1.79t0,0c1.98,2.15,2.87,5.04,2.44,7.93-.42,2.79-2.01,5.22-4.38,6.72l-3.63,2.97c-.12,.1-.25,.19-.39,.28-1.56,.96-3.31,1.42-5.03,1.42Zm2.79-15.16l-3.8,3.03c-.11,.09-.23,.17-.35,.25-.95,.58-1.18,1.46-1.24,1.93-.06,.47-.03,1.39,.75,2.17,.82,.82,2.06,1.01,3.07,.48l3.59-2.94c.14-.11,.29-.22,.44-.31,.94-.55,1.19-1.41,1.26-1.87,.07-.46,.07-1.36-.66-2.16h0c-.78-.85-2.04-1.08-3.07-.58Z"/></g></g></svg>