<?xml version="1.0" encoding="UTF-8"?><svg id="Layer_2" xmlns="http://www.w3.org/2000/svg" viewBox="0 0 142.28 128.76"><g id="Layer_1-2"><g><path d="M71.14,128.76C24.44,128.76,0,116.61,0,104.61c0-4.72,3.37-11.5,19.41-17.02,1.83-.63,3.82,.34,4.45,2.17,.63,1.83-.34,3.82-2.17,4.45-10.83,3.72-14.69,7.81-14.69,10.4,0,7.16,24.4,17.15,64.14,17.15,12.19,0,24.09-1.01,34.43-2.93,1.91-.36,3.73,.9,4.08,2.8,.35,1.9-.9,3.73-2.8,4.08-10.74,1.99-23.09,3.05-35.7,3.05Z"/><path d="M131.69,117.32c-1.18,0-2.33-.59-2.99-1.67-1.01-1.65-.49-3.8,1.16-4.81,3.5-2.14,5.42-4.35,5.42-6.23,0-2.57-3.81-6.63-14.52-10.34-1.82-.63-2.79-2.63-2.16-4.45,.63-1.83,2.62-2.79,4.45-2.16,15.89,5.51,19.23,12.26,19.23,16.95s-2.95,8.65-8.77,12.2c-.57,.35-1.2,.51-1.82,.51Z"/><g><path d="M20.55,108.85c-1.93,0-3.5-1.57-3.5-3.5v-36.22c0-4.35,1.92-8.44,5.26-11.22,2.04-1.7,4.34-2.78,6.66-3.14,5.46-.83,10.98,.75,15.17,4.33l28.32,25.51c2.38,2.14,3.75,5.09,3.85,8.29,.1,3.2-1.07,6.22-3.3,8.52-4.39,4.51-11.5,4.75-16.17,.53l-21.03-18.97c-1.43-1.29-1.55-3.51-.25-4.94,1.29-1.43,3.51-1.55,4.94-.25l21.03,18.97c1.87,1.69,4.72,1.59,6.47-.21,.89-.92,1.36-2.13,1.32-3.41-.04-1.28-.59-2.46-1.54-3.32l-28.25-25.45c-2.57-2.2-6.05-3.2-9.5-2.67-1.05,.16-2.17,.71-3.23,1.6-1.74,1.45-2.74,3.58-2.74,5.84v36.22c0,1.93-1.57,3.5-3.5,3.5Z"/><path d="M46.68,115.25c-1.93,0-3.5-1.57-3.5-3.5v-23.7c0-1.93,1.57-3.5,3.5-3.5s3.5,1.57,3.5,3.5v23.7c0,1.93-1.57,3.5-3.5,3.5Z"/></g><path d="M88.32,115.25c-1.93,0-3.5-1.57-3.5-3.5v-27.8c0-1.93,1.57-3.5,3.5-3.5s3.5,1.57,3.5,3.5v27.8c0,1.93-1.57,3.5-3.5,3.5Z"/><path d="M70.5,102.47c-1,0-1.99-.42-2.68-1.24-1.24-1.48-1.06-3.68,.42-4.93l17.83-15.02c1.48-1.25,3.69-1.06,4.93,.42s1.05,3.68-.42,4.93l-17.83,15.02c-.66,.55-1.46,.82-2.25,.82Z"/><path d="M114.02,116.87c-6.18,0-11.22-5.03-11.22-11.22v-23.04c0-1.93,1.57-3.5,3.5-3.5s3.5,1.57,3.5,3.5v23.04c0,2.33,1.89,4.22,4.22,4.22s4.22-1.89,4.22-4.22v-27.02c0-9.42-7.66-17.08-17.08-17.08-.18,0-.42-.01-.6-.04-.23-.03-6.63-.84-12.61,5.15l-20.6,18.56c-1.43,1.29-3.65,1.18-4.94-.26-1.29-1.44-1.18-3.65,.26-4.94l20.47-18.44c7.7-7.71,16.39-7.22,18.2-7.02,13.22,.12,23.91,10.88,23.91,24.08v27.02c0,6.18-5.03,11.22-11.22,11.22Z"/><path d="M35.15,61.46c-9.98,0-18.11-8.12-18.11-18.11s8.12-18.11,18.11-18.11,18.11,8.12,18.11,18.11-8.12,18.11-18.11,18.11Zm0-29.22c-6.13,0-11.11,4.98-11.11,11.11s4.98,11.11,11.11,11.11,11.11-4.98,11.11-11.11-4.98-11.11-11.11-11.11Z"/><path d="M102.93,61.46c-9.98,0-18.11-8.12-18.11-18.11s8.12-18.11,18.11-18.11,18.11,8.12,18.11,18.11-8.12,18.11-18.11,18.11Zm0-29.22c-6.13,0-11.11,4.98-11.11,11.11s4.98,11.11,11.11,11.11,11.11-4.98,11.11-11.11-4.98-11.11-11.11-11.11Z"/><g><path d="M67.62,16.53c-1.93,0-3.5-1.57-3.5-3.5V3.5c0-1.93,1.57-3.5,3.5-3.5s3.5,1.57,3.5,3.5V13.03c0,1.93-1.57,3.5-3.5,3.5Z"/><g><path d="M53.42,21.87c-.9,0-1.79-.34-2.47-1.03l-6.74-6.74c-1.37-1.37-1.37-3.58,0-4.95,1.36-1.37,3.58-1.37,4.95,0l6.74,6.74c1.37,1.37,1.37,3.58,0,4.95-.68,.68-1.58,1.03-2.47,1.03Z"/><path d="M81.82,21.87c-.9,0-1.79-.34-2.47-1.03-1.37-1.37-1.37-3.58,0-4.95l6.74-6.74c1.37-1.37,3.58-1.37,4.95,0s1.37,3.58,0,4.95l-6.74,6.74c-.68,.68-1.58,1.03-2.47,1.03Z"/></g></g></g></g></svg>