<svg xmlns="http://www.w3.org/2000/svg" baseProfile="basic" viewBox="0 0 48 48"><path d="M6.799,27.626L5.02,21.117c-0.078-0.297-0.13-0.614-0.13-0.828c0-0.666,0.44-1.055,1.171-1.055	c0.621,0,0.99,0.337,1.133,1.035l1.164,5.416h0.052l1.359-5.468c0.168-0.679,0.523-0.983,1.151-0.983c0.608,0,0.99,0.33,1.145,0.978	l1.365,5.474h0.052l1.165-5.416c0.143-0.698,0.511-1.035,1.132-1.035c0.731,0,1.171,0.389,1.171,1.055	c0,0.207-0.052,0.518-0.129,0.828l-1.786,6.528c-0.232,0.848-0.64,1.21-1.378,1.21c-0.77,0-1.19-0.356-1.417-1.223l-1.294-4.749	h-0.052L9.6,27.633c-0.22,0.848-0.653,1.223-1.403,1.223C7.439,28.855,7.031,28.493,6.799,27.626z"/><path d="M19.88,27.626l-1.779-6.509c-0.078-0.297-0.13-0.614-0.13-0.828c0-0.666,0.44-1.055,1.172-1.055	c0.621,0,0.989,0.337,1.132,1.035l1.164,5.416h0.052l1.359-5.468c0.168-0.679,0.523-0.983,1.151-0.983	c0.608,0,0.989,0.33,1.146,0.978l1.364,5.474h0.052l1.165-5.416c0.143-0.698,0.511-1.035,1.132-1.035	c0.731,0,1.171,0.389,1.171,1.055c0,0.207-0.052,0.518-0.129,0.828l-1.786,6.528c-0.232,0.848-0.641,1.21-1.378,1.21	c-0.77,0-1.19-0.356-1.417-1.223l-1.294-4.749h-0.052l-1.294,4.749c-0.22,0.848-0.653,1.223-1.403,1.223	C20.521,28.855,20.112,28.493,19.88,27.626z"/><path d="M32.961,27.626l-1.779-6.509c-0.078-0.297-0.13-0.614-0.13-0.828c0-0.666,0.44-1.055,1.171-1.055	c0.621,0,0.99,0.337,1.133,1.035l1.164,5.416h0.052l1.359-5.468c0.168-0.679,0.523-0.983,1.151-0.983c0.608,0,0.99,0.33,1.145,0.978	l1.365,5.474h0.052l1.165-5.416c0.143-0.698,0.511-1.035,1.132-1.035c0.731,0,1.171,0.389,1.171,1.055	c0,0.207-0.052,0.518-0.129,0.828l-1.786,6.528c-0.232,0.848-0.64,1.21-1.378,1.21c-0.77,0-1.19-0.356-1.417-1.223l-1.294-4.749	h-0.052l-1.294,4.749c-0.22,0.848-0.653,1.223-1.403,1.223C33.602,28.855,33.193,28.493,32.961,27.626z"/><path fill="none" stroke="#000" stroke-linecap="round" stroke-linejoin="round" stroke-miterlimit="10" stroke-width="2" d="M5.67,16C8.75,8.93,15.8,4,24,4s15.25,4.93,18.33,12"/><path fill="none" stroke="#000" stroke-linejoin="round" stroke-miterlimit="10" stroke-width="2" d="M40,12L8,12"/><path fill="none" stroke="#000" stroke-linecap="round" stroke-linejoin="round" stroke-miterlimit="10" stroke-width="2" d="M14.64,16c0.67-4.08,1.84-7.73,3.36-10.67"/><path fill="none" stroke="#000" stroke-linecap="round" stroke-linejoin="round" stroke-miterlimit="10" stroke-width="2" d="M30,5.33c1.52,2.94,2.69,6.59,3.36,10.67"/><line x1="24" x2="24" y1="16" y2="4" fill="none" stroke="#000" stroke-linecap="round" stroke-linejoin="round" stroke-miterlimit="10" stroke-width="2"/><path fill="none" stroke="#000" stroke-linecap="round" stroke-linejoin="round" stroke-miterlimit="10" stroke-width="2" d="M5.67,32C8.75,39.07,15.8,44,24,44s15.25-4.93,18.33-12"/><path fill="none" stroke="#000" stroke-linejoin="round" stroke-miterlimit="10" stroke-width="2" d="M40,36L8,36"/><path fill="none" stroke="#000" stroke-linecap="round" stroke-linejoin="round" stroke-miterlimit="10" stroke-width="2" d="M18,42.67c-1.52-2.94-2.69-6.59-3.36-10.67"/><path fill="none" stroke="#000" stroke-linecap="round" stroke-linejoin="round" stroke-miterlimit="10" stroke-width="2" d="M33.36,32c-0.67,4.08-1.84,7.73-3.36,10.67"/><line x1="24" x2="24" y1="44" y2="32" fill="none" stroke="#000" stroke-linecap="round" stroke-linejoin="round" stroke-miterlimit="10" stroke-width="2"/></svg>