<?xml version="1.0" encoding="utf-8"?>
<!-- Generator: Adobe Illustrator 27.9.0, SVG Export Plug-In . SVG Version: 6.00 Build 0)  -->
<svg version="1.1" id="Outline" xmlns="http://www.w3.org/2000/svg" xmlns:xlink="http://www.w3.org/1999/xlink" x="0px" y="0px"
	 viewBox="0 0 64 64" enable-background="new 0 0 64 64" xml:space="preserve">
<g>
	<path d="M52,25.5h-0.5V23c0-3.03271-2.46777-5.5-5.5-5.5s-5.5,2.46729-5.5,5.5v2.5H40c-0.55273,0-1,0.44775-1,1s0.44727,1,1,1
		h2.62427c0.39136,1.72028,1.74988,3,3.37573,3s2.98438-1.27972,3.37573-3H52c0.55273,0,1-0.44775,1-1S52.55273,25.5,52,25.5z
		 M42.5,23c0-1.92969,1.57031-3.5,3.5-3.5s3.5,1.57031,3.5,3.5v2.5h-7V23z M46,28.5c-0.54114,0-1.02087-0.40948-1.28497-1h2.56995
		C47.02087,28.09052,46.54114,28.5,46,28.5z"/>
	<path d="M18.34277,38.24316l-6.5498,6.5498c-0.39062,0.39062-0.39062,1.02344,0,1.41406c0.38727,0.38727,1.02716,0.3869,1.41406,0
		l6.5498-6.5498c0.39062-0.39062,0.39062-1.02344,0-1.41406S18.7334,37.85254,18.34277,38.24316z"/>
	<path d="M40.24316,38.24316c-0.39062,0.39062-0.39062,1.02344,0,1.41406c0,0,6.5498,6.5498,6.54987,6.54987
		c0.38721,0.38708,1.02649,0.38745,1.414-0.00006c0.39062-0.39062,0.39062-1.02344,0-1.41406l-6.5498-6.5498
		C41.2666,37.85254,40.63379,37.85254,40.24316,38.24316z"/>
	<path d="M46,13c-5.02002,0-9.26001,3.39001-10.57001,8H11c-2.21002,0-4,1.78998-4,4v22c0,2.20996,1.78998,4,4,4h38
		c2.21002,0,4-1.79004,4-4V32.47998c2.44-2.02002,4-5.07001,4-8.47998C57,17.92999,52.07001,13,46,13z M9,25
		c0-1.10004,0.90002-2,2-2h24.04999C35.02002,23.32996,35,23.65997,35,24c0,3.60999,1.75,6.79999,4.44,8.81L31.08002,38.13
		c-0.66003,0.41998-1.5,0.41998-2.15002,0.01001L9,25.45001V25z M51,47c0,1.09998-0.90002,2-2,2H11c-1.09998,0-2-0.90002-2-2
		V27.82001l18.85999,12.00995c1.29004,0.81006,2.98999,0.81006,4.29004-0.00995l9.20996-5.86005C42.77002,34.62,44.34003,35,46,35
		c1.79999,0,3.5-0.44,5-1.21002V47z M46,33c-4.96002,0-9-4.04004-9-9c0-4.96002,4.03998-9,9-9s9,4.03998,9,9
		C55,28.95996,50.96002,33,46,33z"/>
</g>
</svg>
