<svg xmlns="http://www.w3.org/2000/svg" viewBox="0 0 64 64"><g id="Expanded"><path d="M54,15V9a5,5,0,0,0-5-5H15a5,5,0,0,0-5,5v6a5,5,0,0,0,5,5v4a5,5,0,0,0-5,5v6a5,5,0,0,0,5,5v4a5,5,0,0,0-5,5v6a5,5,0,0,0,5,5H49a5,5,0,0,0,5-5V49a5,5,0,0,0-5-5V40a5,5,0,0,0,5-5V29a5,5,0,0,0-5-5V20A5,5,0,0,0,54,15ZM12,15V9a3,3,0,0,1,3-3H49a3,3,0,0,1,3,3v6a3,3,0,0,1-3,3H15A3,3,0,0,1,12,15ZM52,49v6a3,3,0,0,1-3,3H15a3,3,0,0,1-3-3V49a3,3,0,0,1,3-3H49A3,3,0,0,1,52,49Zm-5-5H17V40H47Zm5-15v6a3,3,0,0,1-3,3H15a3,3,0,0,1-3-3V29a3,3,0,0,1,3-3H49A3,3,0,0,1,52,29Zm-5-5H17V20H47ZM18,15a3,3,0,1,0-3-3A3,3,0,0,0,18,15Zm0-4a1,1,0,1,1-1,1A1,1,0,0,1,18,11Zm29,4V9a1,1,0,0,1,2,0v6a1,1,0,0,1-2,0Zm-4,0V9a1,1,0,0,1,2,0v6a1,1,0,0,1-2,0Zm-4,0V9a1,1,0,0,1,2,0v6a1,1,0,0,1-2,0ZM23,12a1,1,0,0,1,1-1H36a1,1,0,0,1,0,2H24A1,1,0,0,1,23,12ZM18,29a3,3,0,1,0,3,3A3,3,0,0,0,18,29Zm0,4a1,1,0,1,1,1-1A1,1,0,0,1,18,33Zm31-4v6a1,1,0,0,1-2,0V29a1,1,0,0,1,2,0Zm-4,0v6a1,1,0,0,1-2,0V29a1,1,0,0,1,2,0Zm-4,0v6a1,1,0,0,1-2,0V29a1,1,0,0,1,2,0Zm-4,3a1,1,0,0,1-1,1H24a1,1,0,0,1,0-2H36A1,1,0,0,1,37,32ZM18,49a3,3,0,1,0,3,3A3,3,0,0,0,18,49Zm0,4a1,1,0,1,1,1-1A1,1,0,0,1,18,53Zm31-4v6a1,1,0,0,1-2,0V49a1,1,0,0,1,2,0Zm-4,0v6a1,1,0,0,1-2,0V49a1,1,0,0,1,2,0Zm-4,0v6a1,1,0,0,1-2,0V49a1,1,0,0,1,2,0Zm-4,3a1,1,0,0,1-1,1H24a1,1,0,0,1,0-2H36A1,1,0,0,1,37,52Z"/></g></svg>