<?xml version="1.0" encoding="UTF-8"?>
<svg id="Outline" xmlns="http://www.w3.org/2000/svg" version="1.1" viewBox="0 0 64 64">
  <!-- Generator: Adobe Illustrator 29.3.1, SVG Export Plug-In . SVG Version: 2.1.0 Build 151)  -->
  <path d="M56,49h-1v-25c0-1.65002-1.34998-3-3-3h-11v-5c0-1.65002-1.34998-3-3-3v-1c0-1.65002-1.34998-3-3-3H15c-1.65002,0-3,1.34998-3,3v1c-1.65002,0-3,1.34998-3,3v33h-1c-.54999,0-1,.45001-1,1v4c0,.54999.45001,1,1,1h48c.54999,0,1-.45001,1-1v-4c0-.54999-.45001-1-1-1ZM41,27h8v2h-8v-2ZM41,35h8v2h-8v-2ZM41,43h8v2h-8v-2ZM41,47h9c.54999,0,1-.45001,1-1v-4c0-.54999-.45001-1-1-1h-9v-2h9c.54999,0,1-.45001,1-1v-4c0-.54999-.45001-1-1-1h-9v-2h9c.54999,0,1-.45001,1-1v-4c0-.54999-.45001-1-1-1h-9v-2h11c.54999,0,1,.45001,1,1v25h-12v-2ZM14,12c0-.54999.45001-1,1-1h20c.54999,0,1,.45001,1,1v1H14v-1ZM11,16c0-.54999.45001-1,1-1h26c.54999,0,1,.45001,1,1v33H11V16ZM55,53H9v-2h46v2Z"/>
  <path d="M19,17h-4c-.55273,0-1,.44775-1,1v4c0,.55225.44727,1,1,1h4c.55273,0,1-.44775,1-1v-4c0-.55225-.44727-1-1-1ZM18,21h-2v-2h2v2Z"/>
  <path d="M27,17h-4c-.55273,0-1,.44775-1,1v4c0,.55225.44727,1,1,1h4c.55273,0,1-.44775,1-1v-4c0-.55225-.44727-1-1-1ZM26,21h-2v-2h2v2Z"/>
  <path d="M35,17h-4c-.55273,0-1,.44775-1,1v4c0,.55225.44727,1,1,1h4c.55273,0,1-.44775,1-1v-4c0-.55225-.44727-1-1-1ZM34,21h-2v-2h2v2Z"/>
  <path d="M19,25h-4c-.55273,0-1,.44775-1,1v4c0,.55225.44727,1,1,1h4c.55273,0,1-.44775,1-1v-4c0-.55225-.44727-1-1-1ZM18,29h-2v-2h2v2Z"/>
  <path d="M27,25h-4c-.55273,0-1,.44775-1,1v4c0,.55225.44727,1,1,1h4c.55273,0,1-.44775,1-1v-4c0-.55225-.44727-1-1-1ZM26,29h-2v-2h2v2Z"/>
  <path d="M35,25h-4c-.55273,0-1,.44775-1,1v4c0,.55225.44727,1,1,1h4c.55273,0,1-.44775,1-1v-4c0-.55225-.44727-1-1-1ZM34,29h-2v-2h2v2Z"/>
  <path d="M19,33h-4c-.55273,0-1,.44775-1,1v4c0,.55225.44727,1,1,1h4c.55273,0,1-.44775,1-1v-4c0-.55225-.44727-1-1-1ZM18,37h-2v-2h2v2Z"/>
  <path d="M27,33h-4c-.55273,0-1,.44775-1,1v4c0,.55225.44727,1,1,1h4c.55273,0,1-.44775,1-1v-4c0-.55225-.44727-1-1-1ZM26,37h-2v-2h2v2Z"/>
  <path d="M35,33h-4c-.55273,0-1,.44775-1,1v4c0,.55225.44727,1,1,1h4c.55273,0,1-.44775,1-1v-4c0-.55225-.44727-1-1-1ZM34,37h-2v-2h2v2Z"/>
  <path d="M19,41h-4c-.55273,0-1,.44775-1,1v4c0,.55225.44727,1,1,1h4c.55273,0,1-.44775,1-1v-4c0-.55225-.44727-1-1-1ZM18,45h-2v-2h2v2Z"/>
  <path d="M27,41h-4c-.55273,0-1,.44775-1,1v4c0,.55225.44727,1,1,1h4c.55273,0,1-.44775,1-1v-4c0-.55225-.44727-1-1-1ZM26,45h-2v-2h2v2Z"/>
  <path d="M35,41h-4c-.55273,0-1,.44775-1,1v4c0,.55225.44727,1,1,1h4c.55273,0,1-.44775,1-1v-4c0-.55225-.44727-1-1-1ZM34,45h-2v-2h2v2Z"/>
</svg>