<?xml version="1.0" encoding="UTF-8"?>
<svg id="Expanded" xmlns="http://www.w3.org/2000/svg" viewBox="0 0 64 64">
  <path d="M15.71,10.71c-4.37,4.37-4.15,4.29-4.71,4.29s-.57-.15-2.71-2.29c-.94-.94.48-2.35,1.41-1.41l1.29,1.29,3.29-3.29c.94-.94,2.35.48,1.41,1.41ZM20,7v10c0,1.65-1.35,3-3,3H7c-1.65,0-3-1.35-3-3V7c0-1.65,1.35-3,3-3h10c1.65,0,3,1.35,3,3ZM18,7c0-.55-.45-1-1-1H7c-.55,0-1,.45-1,1v10c0,.55.45,1,1,1h10c.55,0,1-.45,1-1V7ZM16,32c0,2.21-1.79,4-4,4s-4-1.79-4-4,1.79-4,4-4,4,1.79,4,4ZM14,32c0-1.1-.9-2-2-2s-2,.9-2,2,.9,2,2,2,2-.9,2-2ZM20,32c0,4.41-3.59,8-8,8s-8-3.59-8-8,3.59-8,8-8,8,3.59,8,8ZM18,32c0-3.31-2.69-6-6-6s-6,2.69-6,6,2.69,6,6,6,6-2.69,6-6ZM25,13h34c1.32,0,1.32-2,0-2H25c-1.32,0-1.32,2,0,2ZM25,17h26c1.32,0,1.32-2,0-2h-26c-1.32,0-1.32,2,0,2ZM25,9h14c1.32,0,1.32-2,0-2h-14c-1.32,0-1.32,2,0,2ZM59,31H25c-1.32,0-1.32,2,0,2h34c1.32,0,1.32-2,0-2ZM25,37h26c1.32,0,1.32-2,0-2h-26c-1.32,0-1.32,2,0,2ZM25,29h14c1.32,0,1.32-2,0-2h-14c-.55,0-1,.45-1,1s.45,1,1,1ZM16,52c0,2.21-1.79,4-4,4s-4-1.79-4-4,1.79-4,4-4,4,1.79,4,4ZM14,52c0-1.1-.9-2-2-2s-2,.9-2,2,.9,2,2,2,2-.9,2-2ZM20,52c0,4.41-3.59,8-8,8s-8-3.59-8-8,3.59-8,8-8,8,3.59,8,8ZM18,52c0-3.31-2.69-6-6-6s-6,2.69-6,6,2.69,6,6,6,6-2.69,6-6ZM59,51H25c-1.32,0-1.32,2,0,2h34c1.32,0,1.32-2,0-2ZM51,55h-26c-1.32,0-1.32,2,0,2h26c1.32,0,1.32-2,0-2ZM25,49h14c1.32,0,1.32-2,0-2h-14c-.55,0-1,.45-1,1s.45,1,1,1Z"/>
</svg>